<?xml version="1.0" encoding="UTF-8" standalone="no"?>
<!DOCTYPE svg PUBLIC "-//W3C//DTD SVG 1.1//EN"
 "http://www.w3.org/Graphics/SVG/1.1/DTD/svg11.dtd">
<!-- Generated by graphviz version 2.43.0 (0)
 -->
<!-- Title: include/apu.h Pages: 1 -->
<svg width="167pt" height="218pt"
 viewBox="0.00 0.00 167.00 218.00" xmlns="http://www.w3.org/2000/svg" xmlns:xlink="http://www.w3.org/1999/xlink">
<g id="graph0" class="graph" transform="scale(1 1) rotate(0) translate(4 214)">
<title>include/apu.h</title>
<!-- Node1 -->
<g id="node1" class="node">
<title>Node1</title>
<g id="a_node1"><a xlink:title=" ">
<polygon fill="#bfbfbf" stroke="black" points="60,-190.5 60,-209.5 142,-209.5 142,-190.5 60,-190.5"/>
<text text-anchor="middle" x="101" y="-197.5" font-family="Helvetica,sans-Serif" font-size="10.00">include/apu.h</text>
</a>
</g>
</g>
<!-- Node2 -->
<g id="node2" class="node">
<title>Node2</title>
<g id="a_node2"><a xlink:href="unes_8h.html" target="_top" xlink:title=" ">
<polygon fill="none" stroke="black" points="57.5,-134.5 57.5,-153.5 144.5,-153.5 144.5,-134.5 57.5,-134.5"/>
<text text-anchor="middle" x="101" y="-141.5" font-family="Helvetica,sans-Serif" font-size="10.00">include/unes.h</text>
</a>
</g>
</g>
<!-- Node1&#45;&gt;Node2 -->
<g id="edge1" class="edge">
<title>Node1&#45;&gt;Node2</title>
<path fill="none" stroke="midnightblue" d="M101,-179.8C101,-170.91 101,-160.78 101,-153.75"/>
<polygon fill="midnightblue" stroke="midnightblue" points="97.5,-180.08 101,-190.08 104.5,-180.08 97.5,-180.08"/>
</g>
<!-- Node3 -->
<g id="node3" class="node">
<title>Node3</title>
<g id="a_node3"><a xlink:href="ppu_8hpp.html" target="_top" xlink:title=" ">
<polygon fill="none" stroke="black" points="0,-67.5 0,-97.5 116,-97.5 116,-67.5 0,-67.5"/>
<text text-anchor="start" x="8" y="-85.5" font-family="Helvetica,sans-Serif" font-size="10.00">bindings/cpp/include</text>
<text text-anchor="middle" x="58" y="-74.5" font-family="Helvetica,sans-Serif" font-size="10.00">/ppu.hpp</text>
</a>
</g>
</g>
<!-- Node2&#45;&gt;Node3 -->
<g id="edge2" class="edge">
<title>Node2&#45;&gt;Node3</title>
<path fill="none" stroke="midnightblue" d="M88.89,-126.25C82.34,-117.19 74.35,-106.12 68.13,-97.52"/>
<polygon fill="midnightblue" stroke="midnightblue" points="86.14,-128.42 94.84,-134.48 91.82,-124.32 86.14,-128.42"/>
</g>
<!-- Node4 -->
<g id="node4" class="node">
<title>Node4</title>
<g id="a_node4"><a xlink:href="unes_8hpp.html" target="_top" xlink:title=" ">
<polygon fill="none" stroke="black" points="43,-0.5 43,-30.5 159,-30.5 159,-0.5 43,-0.5"/>
<text text-anchor="start" x="51" y="-18.5" font-family="Helvetica,sans-Serif" font-size="10.00">bindings/cpp/include</text>
<text text-anchor="middle" x="101" y="-7.5" font-family="Helvetica,sans-Serif" font-size="10.00">/unes.hpp</text>
</a>
</g>
</g>
<!-- Node2&#45;&gt;Node4 -->
<g id="edge4" class="edge">
<title>Node2&#45;&gt;Node4</title>
<path fill="none" stroke="midnightblue" d="M112.76,-125.77C117.56,-117.71 122.56,-107.75 125,-98 128.34,-84.63 128.03,-80.44 125,-67 122.1,-54.12 115.5,-40.67 109.96,-30.9"/>
<polygon fill="midnightblue" stroke="midnightblue" points="109.79,-123.92 107.37,-134.23 115.69,-127.68 109.79,-123.92"/>
</g>
<!-- Node3&#45;&gt;Node4 -->
<g id="edge3" class="edge">
<title>Node3&#45;&gt;Node4</title>
<path fill="none" stroke="midnightblue" d="M72.97,-58.87C79.2,-49.46 86.23,-38.83 91.69,-30.58"/>
<polygon fill="midnightblue" stroke="midnightblue" points="69.93,-57.12 67.33,-67.4 75.77,-60.99 69.93,-57.12"/>
</g>
</g>
</svg>
