<?xml version="1.0" encoding="UTF-8" standalone="no"?>
<!DOCTYPE svg PUBLIC "-//W3C//DTD SVG 1.1//EN"
 "http://www.w3.org/Graphics/SVG/1.1/DTD/svg11.dtd">
<!-- Generated by graphviz version 2.43.0 (0)
 -->
<!-- Title: _UNES_GFX Pages: 1 -->
<svg width="137pt" height="95pt"
 viewBox="0.00 0.00 136.50 95.00" xmlns="http://www.w3.org/2000/svg" xmlns:xlink="http://www.w3.org/1999/xlink">
<g id="graph0" class="graph" transform="scale(1 1) rotate(0) translate(4 91)">
<title>_UNES_GFX</title>
<!-- Node1 -->
<g id="node1" class="node">
<title>Node1</title>
<g id="a_node1"><a xlink:title="Internal graphics struct.">
<polygon fill="#bfbfbf" stroke="black" points="14.5,-0.5 14.5,-19.5 88.5,-19.5 88.5,-0.5 14.5,-0.5"/>
<text text-anchor="middle" x="51.5" y="-7.5" font-family="Helvetica,sans-Serif" font-size="10.00">_UNES_GFX</text>
</a>
</g>
</g>
<!-- Node2 -->
<g id="node2" class="node">
<title>Node2</title>
<g id="a_node2"><a xlink:href="structSprite.html" target="_top" xlink:title="Sprite struct.">
<polygon fill="none" stroke="black" points="0,-67.5 0,-86.5 45,-86.5 45,-67.5 0,-67.5"/>
<text text-anchor="middle" x="22.5" y="-74.5" font-family="Helvetica,sans-Serif" font-size="10.00">Sprite</text>
</a>
</g>
</g>
<!-- Node2&#45;&gt;Node1 -->
<g id="edge1" class="edge">
<title>Node2&#45;&gt;Node1</title>
<path fill="none" stroke="#9a32cd" stroke-dasharray="5,2" d="M26.62,-57.55C28.36,-51.2 30.65,-44.15 33.5,-38 36.54,-31.46 41.04,-24.71 44.78,-19.6"/>
<polygon fill="#9a32cd" stroke="#9a32cd" points="23.22,-56.73 24.23,-67.28 30.02,-58.41 23.22,-56.73"/>
<text text-anchor="middle" x="46" y="-41" font-family="Helvetica,sans-Serif" font-size="10.00"> oam</text>
</g>
<!-- Node3 -->
<g id="node3" class="node">
<title>Node3</title>
<g id="a_node3"><a xlink:href="structTile.html" target="_top" xlink:title="Struct representing a background tile.">
<polygon fill="none" stroke="black" points="63,-67.5 63,-86.5 98,-86.5 98,-67.5 63,-67.5"/>
<text text-anchor="middle" x="80.5" y="-74.5" font-family="Helvetica,sans-Serif" font-size="10.00">Tile</text>
</a>
</g>
</g>
<!-- Node3&#45;&gt;Node1 -->
<g id="edge2" class="edge">
<title>Node3&#45;&gt;Node1</title>
<path fill="none" stroke="#9a32cd" stroke-dasharray="5,2" d="M72.38,-57.79C66.81,-45.31 59.67,-29.31 55.35,-19.63"/>
<polygon fill="#9a32cd" stroke="#9a32cd" points="69.32,-59.53 76.59,-67.23 75.71,-56.68 69.32,-59.53"/>
<text text-anchor="middle" x="98" y="-41" font-family="Helvetica,sans-Serif" font-size="10.00"> nametables</text>
</g>
</g>
</svg>
