<?xml version="1.0" encoding="UTF-8" standalone="no"?>
<!DOCTYPE svg PUBLIC "-//W3C//DTD SVG 1.1//EN"
 "http://www.w3.org/Graphics/SVG/1.1/DTD/svg11.dtd">
<!-- Generated by graphviz version 2.43.0 (0)
 -->
<!-- Title: _UNES_APU Pages: 1 -->
<svg width="170pt" height="106pt"
 viewBox="0.00 0.00 170.00 106.00" xmlns="http://www.w3.org/2000/svg" xmlns:xlink="http://www.w3.org/1999/xlink">
<g id="graph0" class="graph" transform="scale(1 1) rotate(0) translate(4 102)">
<title>_UNES_APU</title>
<!-- Node1 -->
<g id="node1" class="node">
<title>Node1</title>
<g id="a_node1"><a xlink:title="Internal audio struct.">
<polygon fill="#bfbfbf" stroke="black" points="47,-0.5 47,-19.5 121,-19.5 121,-0.5 47,-0.5"/>
<text text-anchor="middle" x="84" y="-7.5" font-family="Helvetica,sans-Serif" font-size="10.00">_UNES_APU</text>
</a>
</g>
</g>
<!-- Node2 -->
<g id="node2" class="node">
<title>Node2</title>
<g id="a_node2"><a xlink:href="structTriangleData.html" target="_top" xlink:title="Triangle channel data.">
<polygon fill="none" stroke="black" points="0,-78.5 0,-97.5 78,-97.5 78,-78.5 0,-78.5"/>
<text text-anchor="middle" x="39" y="-85.5" font-family="Helvetica,sans-Serif" font-size="10.00">TriangleData</text>
</a>
</g>
</g>
<!-- Node2&#45;&gt;Node1 -->
<g id="edge1" class="edge">
<title>Node2&#45;&gt;Node1</title>
<path fill="none" stroke="#9a32cd" stroke-dasharray="5,2" d="M48.4,-69.08C53.44,-59.71 59.85,-48.12 66,-38 69.74,-31.84 74.24,-25.09 77.81,-19.88"/>
<polygon fill="#9a32cd" stroke="#9a32cd" points="45.16,-67.73 43.56,-78.2 51.34,-71.01 45.16,-67.73"/>
<text text-anchor="middle" x="86.5" y="-46.5" font-family="Helvetica,sans-Serif" font-size="10.00"> triangle</text>
</g>
<!-- Node3 -->
<g id="node3" class="node">
<title>Node3</title>
<g id="a_node3"><a xlink:href="structPulseData.html" target="_top" xlink:title="Pulse/square channel data.">
<polygon fill="none" stroke="black" points="96,-78.5 96,-97.5 162,-97.5 162,-78.5 96,-78.5"/>
<text text-anchor="middle" x="129" y="-85.5" font-family="Helvetica,sans-Serif" font-size="10.00">PulseData</text>
</a>
</g>
</g>
<!-- Node3&#45;&gt;Node1 -->
<g id="edge2" class="edge">
<title>Node3&#45;&gt;Node1</title>
<path fill="none" stroke="#9a32cd" stroke-dasharray="5,2" d="M122.23,-68.7C118.37,-59.21 113.08,-47.62 107,-38 102.79,-31.34 97.04,-24.59 92.34,-19.5"/>
<polygon fill="#9a32cd" stroke="#9a32cd" points="119.08,-70.25 125.96,-78.3 125.6,-67.72 119.08,-70.25"/>
<text text-anchor="middle" x="138.5" y="-52" font-family="Helvetica,sans-Serif" font-size="10.00"> square1</text>
<text text-anchor="middle" x="138.5" y="-41" font-family="Helvetica,sans-Serif" font-size="10.00">square2</text>
</g>
</g>
</svg>
