<?xml version="1.0" encoding="UTF-8" standalone="no"?>
<!DOCTYPE svg PUBLIC "-//W3C//DTD SVG 1.1//EN"
 "http://www.w3.org/Graphics/SVG/1.1/DTD/svg11.dtd">
<!-- Generated by graphviz version 2.43.0 (0)
 -->
<!-- Title: _UNES_GFX Pages: 1 -->
<svg width="255pt" height="95pt"
 viewBox="0.00 0.00 254.50 95.00" xmlns="http://www.w3.org/2000/svg" xmlns:xlink="http://www.w3.org/1999/xlink">
<g id="graph0" class="graph" transform="scale(1 1) rotate(0) translate(4 91)">
<title>_UNES_GFX</title>
<!-- Node1 -->
<g id="node1" class="node">
<title>Node1</title>
<g id="a_node1"><a xlink:title="Internal graphics struct.">
<polygon fill="#bfbfbf" stroke="black" points="43.5,-0.5 43.5,-19.5 117.5,-19.5 117.5,-0.5 43.5,-0.5"/>
<text text-anchor="middle" x="80.5" y="-7.5" font-family="Helvetica,sans-Serif" font-size="10.00">_UNES_GFX</text>
</a>
</g>
</g>
<!-- Node2 -->
<g id="node2" class="node">
<title>Node2</title>
<g id="a_node2"><a xlink:href="structSprite.html" target="_top" xlink:title="Sprite struct.">
<polygon fill="none" stroke="black" points="0,-67.5 0,-86.5 45,-86.5 45,-67.5 0,-67.5"/>
<text text-anchor="middle" x="22.5" y="-74.5" font-family="Helvetica,sans-Serif" font-size="10.00">Sprite</text>
</a>
</g>
</g>
<!-- Node2&#45;&gt;Node1 -->
<g id="edge1" class="edge">
<title>Node2&#45;&gt;Node1</title>
<path fill="none" stroke="#9a32cd" stroke-dasharray="5,2" d="M34.63,-58.84C39.62,-52.13 45.6,-44.51 51.5,-38 57.41,-31.48 64.66,-24.73 70.44,-19.61"/>
<polygon fill="#9a32cd" stroke="#9a32cd" points="31.59,-57.07 28.55,-67.22 37.26,-61.18 31.59,-57.07"/>
<text text-anchor="middle" x="64" y="-41" font-family="Helvetica,sans-Serif" font-size="10.00"> oam</text>
</g>
<!-- Node3 -->
<g id="node3" class="node">
<title>Node3</title>
<g id="a_node3"><a xlink:href="structTile.html" target="_top" xlink:title="Struct representing a background tile.">
<polygon fill="none" stroke="black" points="63,-67.5 63,-86.5 98,-86.5 98,-67.5 63,-67.5"/>
<text text-anchor="middle" x="80.5" y="-74.5" font-family="Helvetica,sans-Serif" font-size="10.00">Tile</text>
</a>
</g>
</g>
<!-- Node3&#45;&gt;Node1 -->
<g id="edge2" class="edge">
<title>Node3&#45;&gt;Node1</title>
<path fill="none" stroke="#9a32cd" stroke-dasharray="5,2" d="M80.5,-57.04C80.5,-44.67 80.5,-29.12 80.5,-19.63"/>
<polygon fill="#9a32cd" stroke="#9a32cd" points="77,-57.23 80.5,-67.23 84,-57.23 77,-57.23"/>
<text text-anchor="middle" x="111" y="-41" font-family="Helvetica,sans-Serif" font-size="10.00"> nametables</text>
</g>
<!-- Node4 -->
<g id="node4" class="node">
<title>Node4</title>
<g id="a_node4"><a xlink:href="structColor.html" target="_top" xlink:title="Simple color struct.">
<polygon fill="none" stroke="black" points="143.5,-67.5 143.5,-86.5 185.5,-86.5 185.5,-67.5 143.5,-67.5"/>
<text text-anchor="middle" x="164.5" y="-74.5" font-family="Helvetica,sans-Serif" font-size="10.00">Color</text>
</a>
</g>
</g>
<!-- Node4&#45;&gt;Node1 -->
<g id="edge3" class="edge">
<title>Node4&#45;&gt;Node1</title>
<path fill="none" stroke="#9a32cd" stroke-dasharray="5,2" d="M157.05,-57.98C153.47,-51.03 148.62,-43.45 142.5,-38 133.3,-29.79 121.22,-23.78 110.16,-19.53"/>
<polygon fill="#9a32cd" stroke="#9a32cd" points="154.03,-59.77 161.38,-67.4 160.39,-56.85 154.03,-59.77"/>
<text text-anchor="middle" x="199" y="-41" font-family="Helvetica,sans-Serif" font-size="10.00"> universal_bg_color</text>
</g>
</g>
</svg>
