<?xml version="1.0" encoding="UTF-8" standalone="no"?>
<!DOCTYPE svg PUBLIC "-//W3C//DTD SVG 1.1//EN"
 "http://www.w3.org/Graphics/SVG/1.1/DTD/svg11.dtd">
<!-- Generated by graphviz version 2.43.0 (0)
 -->
<!-- Title: include/unes.h Pages: 1 -->
<svg width="490pt" height="140pt"
 viewBox="0.00 0.00 489.50 140.00" xmlns="http://www.w3.org/2000/svg" xmlns:xlink="http://www.w3.org/1999/xlink">
<g id="graph0" class="graph" transform="scale(1 1) rotate(0) translate(4 136)">
<title>include/unes.h</title>
<!-- Node1 -->
<g id="node1" class="node">
<title>Node1</title>
<g id="a_node1"><a xlink:title=" ">
<polygon fill="#bfbfbf" stroke="black" points="230,-112.5 230,-131.5 317,-131.5 317,-112.5 230,-112.5"/>
<text text-anchor="middle" x="273.5" y="-119.5" font-family="Helvetica,sans-Serif" font-size="10.00">include/unes.h</text>
</a>
</g>
</g>
<!-- Node2 -->
<g id="node2" class="node">
<title>Node2</title>
<g id="a_node2"><a xlink:title=" ">
<polygon fill="none" stroke="#bfbfbf" points="297.5,-0.5 297.5,-19.5 341.5,-19.5 341.5,-0.5 297.5,-0.5"/>
<text text-anchor="middle" x="319.5" y="-7.5" font-family="Helvetica,sans-Serif" font-size="10.00">SDL.h</text>
</a>
</g>
</g>
<!-- Node1&#45;&gt;Node2 -->
<g id="edge1" class="edge">
<title>Node1&#45;&gt;Node2</title>
<path fill="none" stroke="midnightblue" d="M277.11,-112.37C284.6,-94.46 301.97,-52.92 311.99,-28.95"/>
<polygon fill="midnightblue" stroke="midnightblue" points="315.28,-30.17 315.91,-19.59 308.82,-27.47 315.28,-30.17"/>
</g>
<!-- Node3 -->
<g id="node3" class="node">
<title>Node3</title>
<g id="a_node3"><a xlink:href="ppu_8h.html" target="_top" xlink:title=" ">
<polygon fill="none" stroke="black" points="226.5,-56.5 226.5,-75.5 270.5,-75.5 270.5,-56.5 226.5,-56.5"/>
<text text-anchor="middle" x="248.5" y="-63.5" font-family="Helvetica,sans-Serif" font-size="10.00">ppu.h</text>
</a>
</g>
</g>
<!-- Node1&#45;&gt;Node3 -->
<g id="edge2" class="edge">
<title>Node1&#45;&gt;Node3</title>
<path fill="none" stroke="midnightblue" d="M269.37,-112.08C265.99,-104.77 261.08,-94.18 256.88,-85.1"/>
<polygon fill="midnightblue" stroke="midnightblue" points="259.93,-83.36 252.55,-75.75 253.58,-86.3 259.93,-83.36"/>
</g>
<!-- Node8 -->
<g id="node8" class="node">
<title>Node8</title>
<g id="a_node8"><a xlink:href="apu_8h.html" target="_top" xlink:title=" ">
<polygon fill="none" stroke="black" points="157.5,-56.5 157.5,-75.5 201.5,-75.5 201.5,-56.5 157.5,-56.5"/>
<text text-anchor="middle" x="179.5" y="-63.5" font-family="Helvetica,sans-Serif" font-size="10.00">apu.h</text>
</a>
</g>
</g>
<!-- Node1&#45;&gt;Node8 -->
<g id="edge8" class="edge">
<title>Node1&#45;&gt;Node8</title>
<path fill="none" stroke="midnightblue" d="M258.4,-112.32C243.6,-103.82 220.81,-90.73 203.52,-80.8"/>
<polygon fill="midnightblue" stroke="midnightblue" points="204.98,-77.6 194.57,-75.65 201.49,-83.67 204.98,-77.6"/>
</g>
<!-- Node10 -->
<g id="node10" class="node">
<title>Node10</title>
<g id="a_node10"><a xlink:href="input_8h.html" target="_top" xlink:title=" ">
<polygon fill="none" stroke="black" points="326.5,-56.5 326.5,-75.5 376.5,-75.5 376.5,-56.5 326.5,-56.5"/>
<text text-anchor="middle" x="351.5" y="-63.5" font-family="Helvetica,sans-Serif" font-size="10.00">input.h</text>
</a>
</g>
</g>
<!-- Node1&#45;&gt;Node10 -->
<g id="edge14" class="edge">
<title>Node1&#45;&gt;Node10</title>
<path fill="none" stroke="midnightblue" d="M286.03,-112.32C298.09,-103.98 316.53,-91.21 330.77,-81.35"/>
<polygon fill="midnightblue" stroke="midnightblue" points="332.77,-84.22 339,-75.65 328.78,-78.47 332.77,-84.22"/>
</g>
<!-- Node3&#45;&gt;Node2 -->
<g id="edge3" class="edge">
<title>Node3&#45;&gt;Node2</title>
<path fill="none" stroke="midnightblue" d="M259.91,-56.32C270.61,-48.18 286.84,-35.84 299.66,-26.09"/>
<polygon fill="midnightblue" stroke="midnightblue" points="302.04,-28.67 307.89,-19.83 297.81,-23.1 302.04,-28.67"/>
</g>
<!-- Node4 -->
<g id="node4" class="node">
<title>Node4</title>
<g id="a_node4"><a xlink:title=" ">
<polygon fill="none" stroke="#bfbfbf" points="71.5,-0.5 71.5,-19.5 127.5,-19.5 127.5,-0.5 71.5,-0.5"/>
<text text-anchor="middle" x="99.5" y="-7.5" font-family="Helvetica,sans-Serif" font-size="10.00">stddef.h</text>
</a>
</g>
</g>
<!-- Node3&#45;&gt;Node4 -->
<g id="edge4" class="edge">
<title>Node3&#45;&gt;Node4</title>
<path fill="none" stroke="midnightblue" d="M226.19,-56.92C201.5,-47.97 161.44,-33.45 132.98,-23.13"/>
<polygon fill="midnightblue" stroke="midnightblue" points="134.04,-19.79 123.44,-19.68 131.65,-26.37 134.04,-19.79"/>
</g>
<!-- Node5 -->
<g id="node5" class="node">
<title>Node5</title>
<g id="a_node5"><a xlink:title=" ">
<polygon fill="none" stroke="#bfbfbf" points="146,-0.5 146,-19.5 199,-19.5 199,-0.5 146,-0.5"/>
<text text-anchor="middle" x="172.5" y="-7.5" font-family="Helvetica,sans-Serif" font-size="10.00">stdint.h</text>
</a>
</g>
</g>
<!-- Node3&#45;&gt;Node5 -->
<g id="edge5" class="edge">
<title>Node3&#45;&gt;Node5</title>
<path fill="none" stroke="midnightblue" d="M236.29,-56.32C224.72,-48.11 207.12,-35.6 193.34,-25.81"/>
<polygon fill="midnightblue" stroke="midnightblue" points="195.11,-22.77 184.93,-19.83 191.06,-28.48 195.11,-22.77"/>
</g>
<!-- Node6 -->
<g id="node6" class="node">
<title>Node6</title>
<g id="a_node6"><a xlink:title=" ">
<polygon fill="none" stroke="#bfbfbf" points="217.5,-0.5 217.5,-19.5 279.5,-19.5 279.5,-0.5 217.5,-0.5"/>
<text text-anchor="middle" x="248.5" y="-7.5" font-family="Helvetica,sans-Serif" font-size="10.00">stdbool.h</text>
</a>
</g>
</g>
<!-- Node3&#45;&gt;Node6 -->
<g id="edge6" class="edge">
<title>Node3&#45;&gt;Node6</title>
<path fill="none" stroke="midnightblue" d="M248.5,-56.08C248.5,-49.01 248.5,-38.86 248.5,-29.99"/>
<polygon fill="midnightblue" stroke="midnightblue" points="252,-29.75 248.5,-19.75 245,-29.75 252,-29.75"/>
</g>
<!-- Node7 -->
<g id="node7" class="node">
<title>Node7</title>
<g id="a_node7"><a xlink:title=" ">
<polygon fill="none" stroke="#bfbfbf" points="360,-0.5 360,-19.5 413,-19.5 413,-0.5 360,-0.5"/>
<text text-anchor="middle" x="386.5" y="-7.5" font-family="Helvetica,sans-Serif" font-size="10.00">string.h</text>
</a>
</g>
</g>
<!-- Node3&#45;&gt;Node7 -->
<g id="edge7" class="edge">
<title>Node3&#45;&gt;Node7</title>
<path fill="none" stroke="midnightblue" d="M270.37,-56.44C293.28,-47.48 329.48,-33.31 355.37,-23.18"/>
<polygon fill="midnightblue" stroke="midnightblue" points="356.7,-26.42 364.74,-19.52 354.15,-19.9 356.7,-26.42"/>
</g>
<!-- Node8&#45;&gt;Node2 -->
<g id="edge13" class="edge">
<title>Node8&#45;&gt;Node2</title>
<path fill="none" stroke="midnightblue" d="M201.68,-56.44C224.93,-47.48 261.65,-33.31 287.92,-23.18"/>
<polygon fill="midnightblue" stroke="midnightblue" points="289.35,-26.38 297.42,-19.52 286.83,-19.85 289.35,-26.38"/>
</g>
<!-- Node8&#45;&gt;Node4 -->
<g id="edge11" class="edge">
<title>Node8&#45;&gt;Node4</title>
<path fill="none" stroke="midnightblue" d="M166.65,-56.32C154.28,-47.98 135.37,-35.21 120.76,-25.35"/>
<polygon fill="midnightblue" stroke="midnightblue" points="122.57,-22.35 112.32,-19.65 118.65,-28.15 122.57,-22.35"/>
</g>
<!-- Node8&#45;&gt;Node5 -->
<g id="edge9" class="edge">
<title>Node8&#45;&gt;Node5</title>
<path fill="none" stroke="midnightblue" d="M178.34,-56.08C177.42,-48.93 176.08,-38.64 174.92,-29.69"/>
<polygon fill="midnightblue" stroke="midnightblue" points="178.39,-29.22 173.63,-19.75 171.45,-30.12 178.39,-29.22"/>
</g>
<!-- Node8&#45;&gt;Node6 -->
<g id="edge10" class="edge">
<title>Node8&#45;&gt;Node6</title>
<path fill="none" stroke="midnightblue" d="M190.59,-56.32C200.99,-48.18 216.76,-35.84 229.22,-26.09"/>
<polygon fill="midnightblue" stroke="midnightblue" points="231.49,-28.75 237.21,-19.83 227.18,-23.24 231.49,-28.75"/>
</g>
<!-- Node9 -->
<g id="node9" class="node">
<title>Node9</title>
<g id="a_node9"><a xlink:title=" ">
<polygon fill="none" stroke="#bfbfbf" points="0,-0.5 0,-19.5 53,-19.5 53,-0.5 0,-0.5"/>
<text text-anchor="middle" x="26.5" y="-7.5" font-family="Helvetica,sans-Serif" font-size="10.00">stdlib.h</text>
</a>
</g>
</g>
<!-- Node8&#45;&gt;Node9 -->
<g id="edge12" class="edge">
<title>Node8&#45;&gt;Node9</title>
<path fill="none" stroke="midnightblue" d="M157.25,-57.15C131.79,-48.16 89.8,-33.34 60.28,-22.92"/>
<polygon fill="midnightblue" stroke="midnightblue" points="61.39,-19.6 50.8,-19.58 59.06,-26.2 61.39,-19.6"/>
</g>
<!-- Node10&#45;&gt;Node2 -->
<g id="edge15" class="edge">
<title>Node10&#45;&gt;Node2</title>
<path fill="none" stroke="midnightblue" d="M346.22,-56.08C341.79,-48.61 335.34,-37.72 329.88,-28.52"/>
<polygon fill="midnightblue" stroke="midnightblue" points="332.79,-26.57 324.69,-19.75 326.77,-30.14 332.79,-26.57"/>
</g>
<!-- Node10&#45;&gt;Node6 -->
<g id="edge17" class="edge">
<title>Node10&#45;&gt;Node6</title>
<path fill="none" stroke="midnightblue" d="M334.95,-56.32C318.51,-47.7 293.07,-34.36 274.03,-24.39"/>
<polygon fill="midnightblue" stroke="midnightblue" points="275.49,-21.2 265.01,-19.65 272.24,-27.4 275.49,-21.2"/>
</g>
<!-- Node10&#45;&gt;Node7 -->
<g id="edge18" class="edge">
<title>Node10&#45;&gt;Node7</title>
<path fill="none" stroke="midnightblue" d="M357.28,-56.08C362.17,-48.53 369.33,-37.49 375.33,-28.23"/>
<polygon fill="midnightblue" stroke="midnightblue" points="378.33,-30.05 380.83,-19.75 372.45,-26.24 378.33,-30.05"/>
</g>
<!-- Node11 -->
<g id="node11" class="node">
<title>Node11</title>
<g id="a_node11"><a xlink:title=" ">
<polygon fill="none" stroke="#bfbfbf" points="431.5,-0.5 431.5,-19.5 481.5,-19.5 481.5,-0.5 431.5,-0.5"/>
<text text-anchor="middle" x="456.5" y="-7.5" font-family="Helvetica,sans-Serif" font-size="10.00">stdio.h</text>
</a>
</g>
</g>
<!-- Node10&#45;&gt;Node11 -->
<g id="edge16" class="edge">
<title>Node10&#45;&gt;Node11</title>
<path fill="none" stroke="midnightblue" d="M368.37,-56.32C385.21,-47.66 411.31,-34.24 430.74,-24.25"/>
<polygon fill="midnightblue" stroke="midnightblue" points="432.38,-27.34 439.67,-19.65 429.18,-21.12 432.38,-27.34"/>
</g>
</g>
</svg>
